<mxfile host="app.diagrams.net" modified="2020-07-20T20:33:45.825Z" agent="5.0 (Windows NT 10.0; Win64; x64) AppleWebKit/537.36 (KHTML, like Gecko) Chrome/83.0.4103.116 Safari/537.36" etag="udcixANlaJGiKCIwXCD3" version="13.4.9" type="github">
  <diagram id="L9sENSaFHmAQ-OTMvxH7" name="Page-1">
    <mxGraphModel dx="1038" dy="499" grid="1" gridSize="10" guides="1" tooltips="1" connect="1" arrows="1" fold="1" page="1" pageScale="1" pageWidth="827" pageHeight="1169" math="0" shadow="0">
      <root>
        <mxCell id="0" />
        <mxCell id="1" parent="0" />
        <mxCell id="x3McI46TNEiP3ocneMEZ-1" style="edgeStyle=orthogonalEdgeStyle;rounded=0;orthogonalLoop=1;jettySize=auto;html=1;exitX=0.5;exitY=1;exitDx=0;exitDy=0;entryX=0.5;entryY=0;entryDx=0;entryDy=0;" edge="1" parent="1" source="x3McI46TNEiP3ocneMEZ-2" target="x3McI46TNEiP3ocneMEZ-6">
          <mxGeometry relative="1" as="geometry" />
        </mxCell>
        <mxCell id="x3McI46TNEiP3ocneMEZ-2" value="Решение краевой задачи: поиск пары t1 и deltaV1 для попадающей траектории" style="rounded=0;whiteSpace=wrap;html=1;verticalAlign=top;align=left;fillColor=#dae8fc;strokeColor=#6c8ebf;" vertex="1" parent="1">
          <mxGeometry x="120" y="140" width="280" height="360" as="geometry" />
        </mxCell>
        <mxCell id="x3McI46TNEiP3ocneMEZ-3" value="Вариант 1&lt;br&gt;&lt;br&gt;Задать t1 и определить для него deltaV1 такой, чтобы траектория попадала в Марс (или по касательной к Марсу)" style="rounded=0;whiteSpace=wrap;html=1;align=left;verticalAlign=top;" vertex="1" parent="1">
          <mxGeometry x="130" y="220" width="120" height="230" as="geometry" />
        </mxCell>
        <mxCell id="x3McI46TNEiP3ocneMEZ-4" value="Вариант 2&lt;br&gt;&lt;br&gt;Для очередного t1 с помощью численных функций решения нелинейных уравнений или функций оптимизации поиск deltaV1 такой, чтобы траектория попадала в Марс (или по касательной к Марсу)" style="rounded=0;whiteSpace=wrap;html=1;align=left;verticalAlign=top;" vertex="1" parent="1">
          <mxGeometry x="274" y="220" width="120" height="230" as="geometry" />
        </mxCell>
        <mxCell id="x3McI46TNEiP3ocneMEZ-5" style="edgeStyle=orthogonalEdgeStyle;rounded=0;orthogonalLoop=1;jettySize=auto;html=1;exitX=0.5;exitY=1;exitDx=0;exitDy=0;entryX=0.5;entryY=0;entryDx=0;entryDy=0;" edge="1" parent="1" source="x3McI46TNEiP3ocneMEZ-6" target="x3McI46TNEiP3ocneMEZ-8">
          <mxGeometry relative="1" as="geometry" />
        </mxCell>
        <mxCell id="x3McI46TNEiP3ocneMEZ-6" value="Определение deltaV2 для перехода на орбиту Марса" style="rounded=0;whiteSpace=wrap;html=1;verticalAlign=top;align=left;" vertex="1" parent="1">
          <mxGeometry x="120" y="580" width="280" height="40" as="geometry" />
        </mxCell>
        <mxCell id="x3McI46TNEiP3ocneMEZ-7" style="edgeStyle=orthogonalEdgeStyle;rounded=0;orthogonalLoop=1;jettySize=auto;html=1;exitX=0.5;exitY=1;exitDx=0;exitDy=0;entryX=0.5;entryY=0;entryDx=0;entryDy=0;" edge="1" parent="1" source="x3McI46TNEiP3ocneMEZ-8" target="x3McI46TNEiP3ocneMEZ-12">
          <mxGeometry relative="1" as="geometry">
            <mxPoint x="260" y="740" as="targetPoint" />
          </mxGeometry>
        </mxCell>
        <mxCell id="x3McI46TNEiP3ocneMEZ-8" value="Определение затрат топлива по deltaV1 и deltaV2" style="rounded=0;whiteSpace=wrap;html=1;verticalAlign=top;align=left;" vertex="1" parent="1">
          <mxGeometry x="120" y="660" width="280" height="40" as="geometry" />
        </mxCell>
        <mxCell id="x3McI46TNEiP3ocneMEZ-9" value="&lt;span&gt;На выходе - t1&lt;/span&gt;&lt;sub&gt;i&lt;/sub&gt;&lt;span&gt;&amp;nbsp;и deltaV1&lt;/span&gt;&lt;sub&gt;i&lt;/sub&gt;&lt;span&gt;&amp;nbsp;для попадающей траектории&lt;/span&gt;" style="text;html=1;strokeColor=none;fillColor=none;align=left;verticalAlign=middle;whiteSpace=wrap;rounded=0;" vertex="1" parent="1">
          <mxGeometry x="270" y="520" width="150" height="20" as="geometry" />
        </mxCell>
        <mxCell id="x3McI46TNEiP3ocneMEZ-10" value="На выходе - deltaM" style="text;html=1;strokeColor=none;fillColor=none;align=center;verticalAlign=middle;whiteSpace=wrap;rounded=0;" vertex="1" parent="1">
          <mxGeometry x="296" y="710" width="76" height="20" as="geometry" />
        </mxCell>
        <mxCell id="x3McI46TNEiP3ocneMEZ-11" style="edgeStyle=orthogonalEdgeStyle;rounded=0;orthogonalLoop=1;jettySize=auto;html=1;entryX=0.5;entryY=0;entryDx=0;entryDy=0;" edge="1" parent="1" source="x3McI46TNEiP3ocneMEZ-12" target="x3McI46TNEiP3ocneMEZ-2">
          <mxGeometry relative="1" as="geometry">
            <mxPoint x="10" y="160" as="targetPoint" />
            <Array as="points">
              <mxPoint x="30" y="770" />
              <mxPoint x="30" y="120" />
              <mxPoint x="260" y="120" />
            </Array>
          </mxGeometry>
        </mxCell>
        <mxCell id="x3McI46TNEiP3ocneMEZ-12" value="Функция минимизации, которая по deltaM варьирует deltaV1 и t1" style="rounded=0;whiteSpace=wrap;html=1;align=left;fillColor=#f8cecc;strokeColor=#b85450;" vertex="1" parent="1">
          <mxGeometry x="120" y="740" width="280" height="60" as="geometry" />
        </mxCell>
        <mxCell id="x3McI46TNEiP3ocneMEZ-13" style="edgeStyle=orthogonalEdgeStyle;rounded=0;orthogonalLoop=1;jettySize=auto;html=1;entryX=0.5;entryY=0;entryDx=0;entryDy=0;" edge="1" parent="1" source="x3McI46TNEiP3ocneMEZ-14" target="x3McI46TNEiP3ocneMEZ-2">
          <mxGeometry relative="1" as="geometry" />
        </mxCell>
        <mxCell id="x3McI46TNEiP3ocneMEZ-14" value="Начальное пристрелочное значение t1&lt;sub&gt;0&lt;/sub&gt; (или попадающая пара deltaV1&lt;sub&gt;0&lt;/sub&gt;&amp;nbsp;и t1&lt;sub&gt;0&lt;/sub&gt;)" style="rounded=0;whiteSpace=wrap;html=1;align=left;" vertex="1" parent="1">
          <mxGeometry x="120" y="40" width="280" height="60" as="geometry" />
        </mxCell>
      </root>
    </mxGraphModel>
  </diagram>
</mxfile>
